<svg xmlns="http://www.w3.org/2000/svg" xmlns:xlink="http://www.w3.org/1999/xlink" version="1.1" x="0px" y="0px" viewBox="0 0 32 32" enable-background="new 0 0 32 32" xml:space="preserve">
<g display="none">
<rect x="-350.895" y="-163.339" display="inline" fill="#8cae08" width="435.561" height="207">
</rect>
</g>
<g display="none">
<g display="inline">
<path fill="#8cae08" d="M31,1.752v22.729H14.738h-0.356l-0.276,0.225l-5.438,4.435v-3.66v-1h-1H1V1.752H31 M32,0.752H0v24.729h7.668v5.766    l7.07-5.766H32V0.752L32,0.752z">
</path>
</g>
<g display="inline">
<polyline fill="none" stroke="#000000" stroke-miterlimit="10" points="10.227,13.867 14.986,17.752 21.783,7.964   ">
</polyline>
</g>
</g>
<g>
<g>
<g>
<path fill="#8cae08" d="M0,25.481h7.668v5.766l7.07-5.766H32V0.752H0V25.481z M10.544,13.479l4.339,3.544l6.489-9.344l0.822,0.57l-7.106,10.232     l-5.177-4.228L10.544,13.479z">
</path>
</g>
</g>
</g>
<g display="none">
<g display="inline">
<path fill="#8cae08" d="M30,2.752v20.729H14.738h-0.712l-0.552,0.45l-3.806,3.104v-1.554v-2h-2H2V2.752H30 M32,0.752H0v24.729h7.668v5.766    l7.07-5.766H32V0.752L32,0.752z">
</path>
</g>
<g display="inline">
<polyline fill="none" stroke="#000000" stroke-width="2" stroke-miterlimit="10" points="10.227,13.867 14.986,17.752     21.783,7.964   ">
</polyline>
</g>
</g>
<g display="none">
<g display="inline">
<path fill="#8cae08" d="M31.5,1.252v23.729H14.738H14.56l-0.138,0.113l-6.254,5.101v-4.713v-0.5h-0.5H0.5V1.252H31.5 M32,0.752H0v24.729h7.668    v5.766l7.07-5.766H32V0.752L32,0.752z">
</path>
</g>
<g display="inline">
<polyline fill="none" stroke="#000000" stroke-width="0.5" stroke-miterlimit="10" points="10.227,13.867 14.986,17.752     21.783,7.964   ">
</polyline>
</g>
</g>
</svg>