<svg xmlns="http://www.w3.org/2000/svg" xmlns:xlink="http://www.w3.org/1999/xlink" version="1.1" x="0px" y="0px" viewBox="0 0 100 100" enable-background="new 0 0 100 100" xml:space="preserve">
<g>
<path fill="#5d3043" fill-rule="evenodd" clip-rule="evenodd" d="M50.463,28.785c5.253,0,10.482-0.685,15.571-2.038   c-0.181-1.679-0.287-2.978-0.377-4.067c-0.257-3.135-0.399-4.863-1.869-10.35c-1.34-5.002-8.28-7.619-14.442-7.619   c-5.346,0-12.14,2.027-13.699,7.742c-1.254,4.602-1.351,6.8-1.496,10.129c-0.052,1.184-0.108,2.491-0.225,4.072   C39.533,28.068,45.089,28.785,50.463,28.785L50.463,28.785z"></path>
<path fill="#5d3043" fill-rule="evenodd" clip-rule="evenodd" d="M87.947,30.501c-2.095-0.887-7.265-1.857-14.963-2.543l0.443-0.505   c0.299,0.244,0.665,0.392,1.056,0.392c0.185,0,0.373-0.031,0.556-0.095l4.576-1.6c0.877-0.307,1.341-1.266,1.033-2.143   c-0.308-0.878-1.268-1.341-2.143-1.033l-1.649,0.577l1.121-1.275c0.094,0.022,0.191,0.041,0.292,0.046l4.841,0.269   c0.031,0.001,0.063,0.002,0.095,0.002c0.887,0,1.629-0.693,1.679-1.589c0.051-0.928-0.658-1.722-1.586-1.774l-2.522-0.14   l1.412-1.608c0.612-0.698,0.544-1.761-0.154-2.375c-0.7-0.614-1.761-0.545-2.374,0.154l-1.472,1.675l-0.13-2.354   c-0.051-0.928-0.835-1.637-1.773-1.587c-0.929,0.052-1.639,0.846-1.587,1.773l0.268,4.841c0.014,0.271,0.099,0.52,0.226,0.74   L74.266,21.4l0.339-1.786c0.173-0.913-0.427-1.793-1.341-1.966c-0.913-0.174-1.793,0.427-1.966,1.34l-0.902,4.763   c-0.11,0.573,0.088,1.134,0.474,1.514L69.9,26.368c-0.385,0.439-0.499,1.022-0.358,1.547c0.03,0.767-0.458,1.466-1.206,1.683   c-5.818,1.693-11.833,2.551-17.873,2.551l0,0c-6.103,0-12.417-0.875-18.77-2.601c-0.786-0.213-1.306-0.96-1.234-1.771   c0.003-0.033,0.005-0.063,0.007-0.096c-9.608,0.684-16.02,1.806-18.413,2.819c3.767,1.594,17.453,3.462,37.947,3.462   C70.495,33.963,84.182,32.096,87.947,30.501z"></path>
<path fill="#5d3043" fill-rule="evenodd" clip-rule="evenodd" d="M70.531,42.531c0-2.004-0.292-3.963-0.854-5.854   c-5.966,0.424-12.69,0.65-19.677,0.65s-13.709-0.226-19.675-0.65c-0.563,1.889-0.855,3.847-0.855,5.854   c0,11.32,9.21,20.531,20.53,20.531C61.321,63.063,70.531,53.852,70.531,42.531z"></path>
<path fill="#5d3043" fill-rule="evenodd" clip-rule="evenodd" d="M33.064,59.762v15.765h3.675V62.398c-1.229-0.824-2.376-1.762-3.431-2.792   C33.229,59.659,33.146,59.707,33.064,59.762z"></path>
<path fill="#5d3043" fill-rule="evenodd" clip-rule="evenodd" d="M62.961,75.526h3.669V59.669c-1.123,1.089-2.352,2.068-3.669,2.922V75.526z"></path>
<path fill="#5d3043" fill-rule="evenodd" clip-rule="evenodd" d="M40.104,64.273v11.253h19.491V64.409c-2.938,1.294-6.184,2.019-9.596,2.019   C46.472,66.428,43.121,65.652,40.104,64.273z"></path>
<path fill="#5d3043" fill-rule="evenodd" clip-rule="evenodd" d="M33.064,78.906v16.383H66.63V78.892H33.064V78.906z M63.669,80.412   c0.872,0,1.583,0.711,1.583,1.583s-0.711,1.583-1.583,1.583s-1.583-0.711-1.583-1.583S62.797,80.412,63.669,80.412z M35.735,80.412   c0.871,0,1.583,0.711,1.583,1.583s-0.712,1.583-1.583,1.583c-0.872,0-1.583-0.711-1.583-1.583S34.863,80.412,35.735,80.412z"></path>
<path fill="#5d3043" fill-rule="evenodd" clip-rule="evenodd" d="M19.441,85.293v9.996h10.258V78.906v-1.697V62.404   C23.416,68.056,19.441,76.228,19.441,85.293z"></path>
<path fill="#5d3043" fill-rule="evenodd" clip-rule="evenodd" d="M69.995,61.686v13.841v2.786v16.977h11.089v-9.996   C81.084,75.835,76.756,67.35,69.995,61.686z"></path></g></svg>