<svg xmlns="http://www.w3.org/2000/svg" xmlns:xlink="http://www.w3.org/1999/xlink" version="1.1" x="0px" y="0px" viewBox="0 30 100 100" enable-background="new 0 0 100 100" xml:space="preserve">
<g>
<g>
<path fill="#5d3043" d="M89.408,50.563V37.882h-10.99h-2.917H20.537h-1.215h-5.806v10.33h-2.161H10.14H4.334v43.687    c0,4.468,3.635,8.102,8.102,8.102h73.462C90.365,100,94,96.366,94,91.898V55.861L89.408,50.563z M86.979,40.312v7.447    l-6.455-7.447H86.979z M77.931,41.028L90.125,55.1H77.931V41.028z M11.355,50.642h2.16v41.257c0,0.596-0.484,1.079-1.08,1.079    c-0.597,0-1.08-0.483-1.08-1.079V50.642z M18.107,91.898c0,3.127-2.544,5.672-5.672,5.672c-3.127,0-5.672-2.545-5.672-5.672    V50.642h2.162v41.257c0,1.936,1.574,3.509,3.51,3.509s3.51-1.573,3.51-3.509l0.001-51.587h2.161V91.898z M91.57,91.898    c0,3.127-2.545,5.672-5.673,5.672H18.211c1.438-1.463,2.326-3.465,2.326-5.672V40.312h54.964v17.218H91.57V91.898z">
</path>
<rect x="27.29" y="48.212" width="21.877" height="21.876" fill="#5d3043">
</rect>
</g>
</g>
</svg>