<svg xmlns="http://www.w3.org/2000/svg" xmlns:xlink="http://www.w3.org/1999/xlink" viewBox="0 0 60 34" version="1.1" x="0px" y="0px">
<title>024-Quality label</title>
<desc>Created with Sketch.</desc>
<g stroke="none" stroke-width="1" fill="none" fill-rule="evenodd">
<g fill="#000000">
<path fill="#5d3043" d="M26,24.5862 L20.414,19.0002 L22,17.4142 L25.293,20.7072 C25.488,20.9022 25.744,21.0002 26,21.0002 C26.256,21.0002 26.512,20.9022 26.707,20.7072 L37,10.4142 L38.586,12.0002 L26,24.5862 Z M44.232,11.6402 C44.214,11.6182 44.209,11.5912 44.193,11.5682 C44.151,11.5082 44.117,11.4452 44.089,11.3752 C44.067,11.3232 44.048,11.2722 44.036,11.2172 C44.03,11.1912 44.014,11.1692 44.01,11.1422 L43.133,5.0002 L36,5.0002 C35.997,5.0002 35.995,4.9982 35.992,4.9982 C35.872,4.9982 35.753,4.9722 35.638,4.9272 C35.592,4.9092 35.556,4.8802 35.514,4.8562 C35.462,4.8272 35.406,4.8072 35.359,4.7682 L30,0.3022 L24.64,4.7682 C24.593,4.8072 24.538,4.8272 24.487,4.8562 C24.444,4.8802 24.408,4.9092 24.362,4.9272 C24.245,4.9732 24.123,5.0002 24,5.0002 L24,5.0002 L24,5.0002 L16.867,5.0002 L15.99,11.1422 C15.986,11.1692 15.97,11.1912 15.964,11.2172 C15.952,11.2722 15.933,11.3222 15.911,11.3752 C15.883,11.4452 15.849,11.5082 15.807,11.5682 C15.791,11.5912 15.786,11.6182 15.768,11.6402 L11.302,17.0002 L15.768,22.3592 C15.784,22.3792 15.788,22.4042 15.803,22.4242 C15.842,22.4792 15.871,22.5392 15.899,22.6022 C15.926,22.6632 15.95,22.7232 15.964,22.7872 C15.97,22.8122 15.986,22.8322 15.99,22.8582 L16.867,29.0002 L24,29.0002 C24.047,29.0002 24.088,29.0212 24.133,29.0272 C24.203,29.0362 24.27,29.0442 24.337,29.0682 C24.405,29.0932 24.462,29.1302 24.522,29.1682 C24.56,29.1922 24.604,29.2022 24.64,29.2322 L30,33.6992 L35.359,29.2322 C35.396,29.2022 35.44,29.1912 35.48,29.1672 C35.539,29.1302 35.595,29.0932 35.662,29.0682 C35.729,29.0442 35.796,29.0372 35.865,29.0272 C35.911,29.0212 35.952,29.0002 36,29.0002 L43.133,29.0002 L44.01,22.8582 C44.014,22.8322 44.03,22.8122 44.036,22.7872 C44.05,22.7232 44.074,22.6642 44.101,22.6032 C44.129,22.5382 44.158,22.4782 44.198,22.4222 C44.213,22.4022 44.216,22.3782 44.232,22.3592 L48.698,17.0002 L44.232,11.6402 Z">
</path>
<path fill="#5d3043" d="M55.128,17.6537 C55.078,17.5847 55.035,17.5177 55.002,17.4417 C54.97,17.3707 54.949,17.3007 54.933,17.2267 C54.917,17.1507 54.907,17.0777 54.907,17.0007 C54.907,16.9227 54.917,16.8497 54.933,16.7747 C54.949,16.6997 54.97,16.6297 55.002,16.5587 C55.035,16.4837 55.078,16.4157 55.128,16.3467 C55.155,16.3097 55.164,16.2667 55.196,16.2317 L60,11.0007 L47.135,11.0007 L51.939,16.2317 C51.971,16.2667 51.98,16.3097 52.007,16.3467 C52.057,16.4157 52.1,16.4837 52.133,16.5587 C52.165,16.6297 52.186,16.6997 52.202,16.7747 C52.218,16.8497 52.228,16.9227 52.228,17.0007 C52.228,17.0777 52.218,17.1507 52.202,17.2267 C52.186,17.3007 52.165,17.3707 52.133,17.4417 C52.1,17.5177 52.057,17.5847 52.007,17.6537 C51.98,17.6907 51.971,17.7337 51.939,17.7687 L47.135,23.0007 L60,23.0007 L55.196,17.7687 C55.164,17.7337 55.155,17.6907 55.128,17.6537">
</path>
<path fill="#5d3043" d="M7.9934,17.6537 C7.9434,17.5847 7.9004,17.5177 7.8674,17.4417 C7.8354,17.3707 7.8144,17.3007 7.7984,17.2267 C7.7824,17.1507 7.7724,17.0777 7.7724,17.0007 C7.7724,16.9227 7.7824,16.8497 7.7984,16.7747 C7.8144,16.6997 7.8354,16.6297 7.8674,16.5587 C7.9004,16.4837 7.9434,16.4157 7.9934,16.3467 C8.0204,16.3097 8.0294,16.2667 8.0614,16.2317 L12.8654,11.0007 L0.0004,11.0007 L4.8044,16.2317 C4.8364,16.2667 4.8454,16.3097 4.8724,16.3467 C4.9224,16.4157 4.9654,16.4837 4.9984,16.5587 C5.0304,16.6297 5.0514,16.6997 5.0674,16.7747 C5.0834,16.8497 5.0934,16.9227 5.0934,17.0007 C5.0934,17.0777 5.0834,17.1507 5.0674,17.2267 C5.0514,17.3007 5.0304,17.3707 4.9984,17.4417 C4.9654,17.5177 4.9224,17.5847 4.8724,17.6537 C4.8454,17.6907 4.8364,17.7337 4.8044,17.7687 L0.0004,23.0007 L12.8654,23.0007 L8.0614,17.7687 C8.0294,17.7337 8.0204,17.6907 7.9934,17.6537">
</path>
</g>
</g>
</svg>