<?xml version="1.0" standalone="no"?>
<!DOCTYPE svg PUBLIC "-//W3C//DTD SVG 1.1//EN" "http://www.w3.org/Graphics/SVG/1.1/DTD/svg11.dtd" >
<svg xmlns="http://www.w3.org/2000/svg">
<metadata>Generated by IcoMoon</metadata>
<defs>
<font id="icomoon" horiz-adv-x="1024">
<font-face units-per-em="1024" ascent="960" descent="-64" />
<missing-glyph horiz-adv-x="1024" />
<glyph unicode="&#x20;" horiz-adv-x="512" d="" />
<glyph unicode="&#xe900;" d="M529.92 418.56h-38.4c-1.414 0-2.56 1.146-2.56 2.56v53.76c0 1.414 1.146 2.56 2.56 2.56h38.4c2.828 0 5.12-2.292 5.12-5.12v-48.64c0-2.828-2.292-5.12-5.12-5.12z" />
<glyph unicode="&#xe901;" d="M509.44 477.44h-10.24v-16.64l5.12 2.56 5.12-2.56z" />
<glyph unicode="&#xe902;" d="M488.96 449.28h46.080v-19.2h-46.080v19.2z" />
<glyph unicode="&#xe903;" d="M524.8 477.44h3.84v-58.88h-3.84v58.88z" />
<glyph unicode="&#xe904;" d="M515.84 441.6h-20.48c-0.708 0-1.28 0.572-1.28 1.28s0.572 1.28 1.28 1.28h20.48c0.708 0 1.28-0.572 1.28-1.28s-0.572-1.28-1.28-1.28z" />
<glyph unicode="&#xe905;" d="M505.6 435.2h-10.24c-0.708 0-1.28 0.572-1.28 1.28s0.572 1.28 1.28 1.28h10.24c0.708 0 1.28-0.572 1.28-1.28s-0.572-1.28-1.28-1.28z" />
<glyph unicode="&#xe906;" d="M661.333 632.889h-298.667c-7.855 0-14.222 6.368-14.222 14.222v284.444c0 7.855 6.368 14.222 14.222 14.222h298.667c7.855 0 14.222-6.368 14.222-14.222v-284.444c0-7.855-6.368-14.222-14.222-14.222z" />
<glyph unicode="&#xe907;" d="M654.222 860.444h-284.444v49.778c0 7.855 6.368 14.222 14.222 14.222h256c7.855 0 14.222-6.368 14.222-14.222v-49.778z" />
<glyph unicode="&#xe908;" d="M369.778 867.556v-199.111c0-7.855 6.368-14.222 14.222-14.222h256c7.855 0 14.222 6.368 14.222 14.222v199.111h-284.444z" />
<glyph unicode="&#xe909;" d="M519.111 888.889h-14.222c-3.927 0-7.111 3.184-7.111 7.111v0c0 3.927 3.184 7.111 7.111 7.111h14.222c3.927 0 7.111-3.184 7.111-7.111v0c0-3.927-3.184-7.111-7.111-7.111z" />
<glyph unicode="&#xe90a;" d="M440.889 888.889h-14.222c-3.927 0-7.111 3.184-7.111 7.111v0c0 3.927 3.184 7.111 7.111 7.111h14.222c3.927 0 7.111-3.184 7.111-7.111v0c0-3.927-3.184-7.111-7.111-7.111z" />
<glyph unicode="&#xe90b;" d="M597.333 888.889h-14.222c-3.927 0-7.111 3.184-7.111 7.111v0c0 3.927 3.184 7.111 7.111 7.111h14.222c3.927 0 7.111-3.184 7.111-7.111v0c0-3.927-3.184-7.111-7.111-7.111z" />
<glyph unicode="&#xe90c;" d="M483.556 704c-1.819 0-3.639 0.694-5.028 2.083l-42.667 42.667c-2.778 2.778-2.778 7.278 0 10.056s7.278 2.778 10.056 0l37.639-37.639 94.528 94.528c2.778 2.778 7.278 2.778 10.056 0s2.778-7.278 0-10.056l-99.556-99.556c-1.389-1.389-3.208-2.083-5.028-2.083z" />
<glyph unicode="&#xe90d;" d="M348.444 298.667c0-7.855 6.368-14.222 14.222-14.222h298.667c7.855 0 14.222 6.368 14.222 14.222v213.333h-327.111v-213.333z" />
<glyph unicode="&#xe90e;" d="M661.333 583.111h-298.667c-7.855 0-14.222-6.367-14.222-14.222v-56.889h327.111v56.889c0 7.855-6.368 14.222-14.222 14.222z" />
<glyph unicode="&#xe90f;" d="M412.444 547.556v56.889c0 3.927 3.184 7.111 7.111 7.111h14.222c3.927 0 7.111-3.184 7.111-7.111v-56.889c0-3.927-3.184-7.111-7.111-7.111h-14.222c-3.927 0-7.111 3.184-7.111 7.111z" />
<glyph unicode="&#xe910;" d="M583.111 547.556v56.889c0 3.927 3.184 7.111 7.111 7.111h14.222c3.927 0 7.111-3.184 7.111-7.111v-56.889c0-3.927-3.184-7.111-7.111-7.111h-14.222c-3.927 0-7.111 3.184-7.111 7.111z" />
<glyph unicode="&#xe911;" d="M483.556 341.333c-1.819 0-3.639 0.694-5.028 2.083l-42.667 42.667c-2.778 2.778-2.778 7.278 0 10.056s7.278 2.778 10.056 0l37.639-37.639 94.528 94.528c2.778 2.778 7.278 2.778 10.056 0s2.778-7.278 0-10.056l-99.556-99.556c-1.389-1.389-3.208-2.083-5.028-2.083z" />
<glyph unicode="&#xe912;" d="M348.444-42.667c0-7.855 6.368-14.222 14.222-14.222h298.667c7.855 0 14.222 6.368 14.222 14.222v213.333h-327.111v-213.333z" />
<glyph unicode="&#xe913;" d="M661.333 241.778h-298.667c-7.855 0-14.222-6.367-14.222-14.222v-56.889h327.111v56.889c0 7.855-6.368 14.222-14.222 14.222z" />
<glyph unicode="&#xe914;" d="M412.444 206.222v56.889c0 3.927 3.184 7.111 7.111 7.111h14.222c3.927 0 7.111-3.184 7.111-7.111v-56.889c0-3.927-3.184-7.111-7.111-7.111h-14.222c-3.927 0-7.111 3.184-7.111 7.111z" />
<glyph unicode="&#xe915;" d="M583.111 206.222v56.889c0 3.927 3.184 7.111 7.111 7.111h14.222c3.927 0 7.111-3.184 7.111-7.111v-56.889c0-3.927-3.184-7.111-7.111-7.111h-14.222c-3.927 0-7.111 3.184-7.111 7.111z" />
<glyph unicode="&#xe916;" d="M625.778 35.556h-21.333v42.667h21.333c3.931 0 7.111 3.181 7.111 7.111s-3.181 7.111-7.111 7.111h-21.333v35.556c0 3.931-3.181 7.111-7.111 7.111s-7.111-3.181-7.111-7.111v-35.556h-42.667v35.556c0 3.931-3.181 7.111-7.111 7.111s-7.111-3.181-7.111-7.111v-35.556h-42.667v35.556c0 3.931-3.181 7.111-7.111 7.111s-7.111-3.181-7.111-7.111v-35.556h-42.667v35.556c0 3.931-3.181 7.111-7.111 7.111s-7.111-3.181-7.111-7.111v-35.556h-21.333c-3.931 0-7.111-3.181-7.111-7.111s3.181-7.111 7.111-7.111h21.333v-42.667h-21.333c-3.931 0-7.111-3.181-7.111-7.111s3.181-7.111 7.111-7.111h21.333v-35.556c0-3.931 3.181-7.111 7.111-7.111s7.111 3.181 7.111 7.111v35.556h42.667v-35.556c0-3.931 3.181-7.111 7.111-7.111s7.111 3.181 7.111 7.111v35.556h42.667v-35.556c0-3.931 3.181-7.111 7.111-7.111s7.111 3.181 7.111 7.111v35.556h42.667v-35.556c0-3.931 3.181-7.111 7.111-7.111s7.111 3.181 7.111 7.111v35.556h21.333c3.931 0 7.111 3.181 7.111 7.111s-3.181 7.111-7.111 7.111zM433.778 35.556v42.667h42.667v-42.667h-42.667zM490.667 35.556v42.667h42.667v-42.667h-42.667zM547.556 35.556v42.667h42.667v-42.667h-42.667z" />
<glyph unicode="&#xe917;" d="M810.667-42.667h-640c-23.573 0-42.667 19.093-42.667 42.667v896c0 23.573 19.093 42.667 42.667 42.667h640c47.125 0 85.333-38.208 85.333-85.333v-810.667c0-47.125-38.208-85.333-85.333-85.333z" />
<glyph unicode="&#xe918;" d="M469.333 938.667h-170.667v-277.333l85.333 42.667 85.333-42.667z" />
<glyph unicode="&#xe919;" d="M128 469.333h768v-320h-768v320z" />
<glyph unicode="&#xe91a;" d="M725.333 938.667h64v-981.333h-64v981.333z" />
<glyph unicode="&#xe91b;" d="M576 341.333h-341.333c-11.797 0-21.333 9.536-21.333 21.333s9.536 21.333 21.333 21.333h341.333c11.797 0 21.333-9.536 21.333-21.333s-9.536-21.333-21.333-21.333z" />
<glyph unicode="&#xe91c;" d="M405.333 234.667h-170.667c-11.797 0-21.333 9.536-21.333 21.333s9.536 21.333 21.333 21.333h170.667c11.797 0 21.333-9.536 21.333-21.333s-9.536-21.333-21.333-21.333z" />
<glyph unicode="&#xe91d;" d="M426.667 704c0 117.821 95.513 213.333 213.333 213.333s213.333-95.513 213.333-213.333v-170.528c0-47.205-38.239-85.472-85.317-85.472h-256.033c-47.119 0-85.317 38.271-85.317 85.472v170.528z" />
<glyph unicode="&#xe91e;" d="M533.333 576h213.333v-256h-213.333v256z" />
<glyph unicode="&#xe91f;" d="M319.846-42.667c-11.697 0-21.18 9.415-21.18 21.489v266.358c0 35.431 25.56 76.933 57.406 92.856l177.261 88.63c0 0 42.667-42.667 106.667-42.667s106.667 42.667 106.667 42.667l177.261-88.63c31.704-15.852 57.406-57.508 57.406-92.856v-266.358c0-11.868-9.65-21.489-21.18-21.489h-640.308z" />
<glyph unicode="&#xe920;" d="M469.333 669.108v-31.030c0-94.099 76.567-170.667 170.667-170.667s170.667 76.567 170.667 170.667v31.030c0 25.706-20.839 46.545-46.545 46.545-54.038 0-100.907 30.696-124.121 75.602-23.214-44.906-70.083-75.602-124.121-75.602-25.706 0-46.545-20.839-46.545-46.545z" />
<glyph unicode="&#xe921;" d="M277.333 362.667h213.333v-243.478h-213.333v243.478z" />
<glyph unicode="&#xe922;" d="M63.846-42.667c-11.697 0-21.179 9.531-21.179 21.363v53.247c0 35.378 25.56 76.837 57.406 92.76l177.261 88.63c0 0 42.667-42.667 106.667-42.667s106.667 42.667 106.667 42.667l177.261-88.63c31.704-15.852 57.406-57.435 57.406-92.76v-53.247c0-11.798-9.65-21.363-21.18-21.363h-640.308z" />
<glyph unicode="&#xe923;" d="M554.667 426.667c0-94.257-76.41-170.667-170.667-170.667s-170.667 76.41-170.667 170.667v64c0 94.257 76.41 170.667 170.667 170.667s170.667-76.41 170.667-170.667v-64z" />
<glyph unicode="&#xe924;" d="M554.667 469.333v106.668c0 46.94-38.217 85.332-85.36 85.332h-10.64l-22.399 44.798c-5.418 10.835-18.415 15.676-29.289 11.327l-134.221-53.688c-32.838-13.135-59.425-52.44-59.425-87.806v-106.631c0 47.128 38.205 85.333 85.333 85.333h170.667c47.128 0 85.333-38.205 85.333-85.333z" />
<glyph unicode="&#xe925;" d="M448 853.333c-11.781 0-21.333 9.552-21.333 21.333v64c0 11.781 9.552 21.333 21.333 21.333s21.333-9.552 21.333-21.333v-64c0-11.781-9.552-21.333-21.333-21.333z" />
<glyph unicode="&#xe926;" d="M568.677 803.344c-5.458 0-10.917 2.083-15.083 6.25-8.333 8.333-8.333 21.833 0 30.167l45.26 45.26c8.333 8.333 21.833 8.333 30.167 0s8.333-21.833 0-30.167l-45.26-45.26c-4.167-4.167-9.625-6.25-15.083-6.25z" />
<glyph unicode="&#xe927;" d="M682.667 682.667h-64c-11.781 0-21.333 9.552-21.333 21.333s9.552 21.333 21.333 21.333h64c11.781 0 21.333-9.552 21.333-21.333s-9.552-21.333-21.333-21.333z" />
<glyph unicode="&#xe928;" d="M327.323 803.344c-5.458 0-10.917 2.083-15.083 6.25l-45.26 45.26c-8.333 8.333-8.333 21.833 0 30.167s21.833 8.333 30.167 0l45.26-45.26c8.333-8.333 8.333-21.833 0-30.167-4.167-4.167-9.625-6.25-15.083-6.25z" />
<glyph unicode="&#xe929;" d="M277.333 682.667h-64c-11.781 0-21.333 9.552-21.333 21.333s9.552 21.333 21.333 21.333h64c11.781 0 21.333-9.552 21.333-21.333s-9.552-21.333-21.333-21.333z" />
<glyph unicode="&#xe92a;" d="M832 384c0 22-20.516 42.667-45.827 42.667-21.133 0-38.745-13.392-44.037-31.507-0.806 29.291-26.435 52.84-58.092 52.84h-1.962c-25.106 0-46.312-14.868-54.498-35.6 0 0-2.25 56.934-58.179 56.934h-1.82c-27.378 0-51.266-14.908-55.585-42.667v288c0 41.237-33.429 74.667-74.667 74.667v0c-41.237 0-74.667-33.429-74.667-74.667v-352h-103.506c-25.31 0-45.827-19.103-45.827-42.667v-170.667c0-74.667 114.568-129.333 114.568-213.333h435.358c0 0 68.741 293.333 68.741 448z" />
<glyph unicode="&#xe92b;" d="M341.333 234.667v0c-11.782 0-21.333 9.551-21.333 21.333v106.667h42.667v-106.667c0-11.782-9.551-21.333-21.333-21.333z" />
<glyph unicode="&#xe92c;" d="M982.912 457.28l-426.581 33.323c-3.584 0.256-7.083-0.341-10.325-1.771l-384-170.667c-10.027-4.459-15.040-15.808-11.563-26.24l18.752-56.299c17.216-51.605 63.125-89.344 116.992-96.149 97.067-12.267 277.653-32.811 396.48-32.811 86.4 0 166.699 33.024 226.091 92.992 61.376 61.973 94.699 145.984 93.824 236.544-0.107 11.051-8.64 20.203-19.669 21.077z" />
<glyph unicode="&#xe92d;" d="M512 554.667h-469.333c-11.776 0-21.333 9.557-21.333 21.333s9.557 21.333 21.333 21.333h469.333c11.776 0 21.333-9.557 21.333-21.333s-9.557-21.333-21.333-21.333z" />
<glyph unicode="&#xe92e;" d="M385.813 661.333h-343.147c-11.776 0-21.333 9.557-21.333 21.333s9.557 21.333 21.333 21.333h343.147c11.776 0 21.333-9.557 21.333-21.333s-9.536-21.333-21.333-21.333z" />
<glyph unicode="&#xe92f;" d="M661.333 810.667h-597.333c-23.573 0-42.667-19.093-42.667-42.667v-426.667c0-23.573 19.093-42.667 42.667-42.667h597.333c23.573 0 42.667 19.093 42.667 42.667v426.667c0 23.573-19.093 42.667-42.667 42.667z" />
<glyph unicode="&#xe930;" d="M21.333 704h661.333v-106.667h-661.333v106.667z" />
<glyph unicode="&#xe931;" d="M704 702.933c-7.083 0.469-14.144 1.067-21.333 1.067h-298.667c-11.776 0-21.333-9.557-21.333-21.333 0-70.592 57.408-128 128-128h64c8.149-73.6 79.851-148.629 149.333-178.453v326.72z" />
<glyph unicode="&#xe932;" d="M682.667 746.667h-298.667c-11.776 0-21.333-9.557-21.333-21.333 0-70.592 57.408-128 128-128h86.528c10.475-94.635 88.619-192 190.805-192 0.32 0 0.619 0 0.939 0.021l213.248 9.344c11.477 0.491 20.501 10.027 20.395 21.525-1.664 171.179-145.173 310.443-319.915 310.443z" />
<glyph unicode="&#xe933;" d="M106.667 512h298.667v-64h-298.667v64z" />
<glyph unicode="&#xe934;" d="M595.292 646.281c-2.115 2.901-5.385 4.521-9.135 4.375l-224-10.667c-5.687-0.271-10.156-4.964-10.156-10.656 0-94.104 76.562-170.667 170.667-170.667 4.448 0 8.427 2.76 9.99 6.922l64 170.667c1.26 3.359 0.74 7.125-1.365 10.026z" />
<glyph unicode="&#xe935;" d="M341.333 853.333v42.667c0 17.673 14.327 32 32 32v0c17.673 0 32-14.327 32-32v-42.667z" />
<glyph unicode="&#xe936;" d="M426.667 853.333v53.333c0 17.673 14.327 32 32 32v0c17.673 0 32-14.327 32-32v-53.333z" />
<glyph unicode="&#xe937;" d="M597.333 853.333v53.333c0 17.673 14.327 32 32 32v0c17.673 0 32-14.327 32-32v-53.333z" />
<glyph unicode="&#xe938;" d="M512 853.333v74.667c0 17.673 14.327 32 32 32v0c17.673 0 32-14.327 32-32v-74.667z" />
<glyph unicode="&#xe939;" d="M746.667 597.333h-469.333c-5.891 0-10.667 4.776-10.667 10.667v256c0 5.891 4.776 10.667 10.667 10.667h469.333c5.891 0 10.667-4.776 10.667-10.667v-256c0-5.891-4.776-10.667-10.667-10.667z" />
<glyph unicode="&#xe93a;" d="M661.333 842.667h-298.667c0-35.346-28.654-64-64-64v-85.333c35.346 0 64-28.654 64-64h298.667c0 35.346 28.654 64 64 64v85.333c-35.346 0-64 28.654-64 64z" />
<glyph unicode="&#xe93b;" d="M565.333 736c0-29.455-23.878-53.333-53.333-53.333s-53.333 23.878-53.333 53.333c0 29.455 23.878 53.333 53.333 53.333s53.333-23.878 53.333-53.333z" />
<glyph unicode="&#xe93c;" d="M608 704.526v-64.526c-33.76 0-67.454-15.958-90.034-42.667h150.921c1.979 10.378 3.114 21.054 3.114 32v148.674c-47.75 5.852-64-27.424-64-73.481z" />
<glyph unicode="&#xe93d;" d="M693.333 778.007c-47.75 5.852-64-27.424-64-73.481v-64.526c-58.667 0-117.333-48-117.333-117.333v-53.136c0-5.872 4.66-10.859 10.532-10.864 94.166-0.073 170.801 76.517 170.801 170.666v148.674z" />
<glyph unicode="&#xe93e;" d="M480 394.667c-5.891 0-10.667 4.776-10.667 10.667v32c0 5.891 4.776 10.667 10.667 10.667s10.667-4.776 10.667-10.667v-32c0-5.891-4.776-10.667-10.667-10.667z" />
<glyph unicode="&#xe93f;" d="M540.339 369.672c-2.729 0-5.458 1.042-7.542 3.125-4.167 4.167-4.167 10.917 0 15.083l22.63 22.63c4.167 4.167 10.917 4.167 15.083 0s4.167-10.917 0-15.083l-22.63-22.63c-2.083-2.083-4.812-3.125-7.542-3.125z" />
<glyph unicode="&#xe940;" d="M597.333 309.333h-32c-5.891 0-10.667 4.776-10.667 10.667s4.776 10.667 10.667 10.667h32c5.891 0 10.667-4.776 10.667-10.667s-4.776-10.667-10.667-10.667z" />
<glyph unicode="&#xe941;" d="M419.661 369.672c-2.729 0-5.458 1.042-7.542 3.125l-22.63 22.63c-4.167 4.167-4.167 10.917 0 15.083s10.917 4.167 15.083 0l22.63-22.63c4.167-4.167 4.167-10.917 0-15.083-2.083-2.083-4.812-3.125-7.542-3.125z" />
<glyph unicode="&#xe942;" d="M394.667 309.333h-32c-5.891 0-10.667 4.776-10.667 10.667s4.776 10.667 10.667 10.667h32c5.891 0 10.667-4.776 10.667-10.667s-4.776-10.667-10.667-10.667z" />
<glyph unicode="&#xe943;" d="M672 160c0 11-10.258 21.333-22.914 21.333-10.567 0-19.373-6.696-22.019-15.753-0.403 14.646-13.218 26.42-29.046 26.42h-0.981c-12.553 0-23.156-7.434-27.249-17.8 0 0-1.125 28.467-29.089 28.467h-0.91c-13.689 0-25.633-7.454-27.792-21.333v144c0 20.619-16.715 37.333-37.333 37.333v0c-20.619 0-37.333-16.715-37.333-37.333v-176h-51.753c-12.655 0-22.914-9.551-22.914-21.333v-85.333c0-37.333 57.284-64.667 57.284-106.667h217.679c0 0 34.37 146.667 34.37 224z" />
<glyph unicode="&#xe944;" d="M426.667 85.333v0c-5.891 0-10.667 4.776-10.667 10.667v53.333h21.333v-53.333c0-5.891-4.776-10.667-10.667-10.667z" />
<glyph unicode="&#xe945;" d="M896-42.667h-768c-6.357 0-12.373 2.837-16.448 7.723-4.032 4.907-5.717 11.349-4.523 17.6l84.971 446.016v232.661c0 11.776 9.536 21.333 21.333 21.333h597.333c11.797 0 21.333-9.557 21.333-21.333v-232.661l84.949-446.016c1.195-6.229-0.469-12.693-4.523-17.6-4.053-4.885-10.069-7.723-16.427-7.723z" />
<glyph unicode="&#xe946;" d="M661.333 512c-11.797 0-21.333 9.557-21.333 21.333v234.667c0 70.592-57.408 128-128 128s-128-57.408-128-128v-234.667c0-11.776-9.536-21.333-21.333-21.333s-21.333 9.557-21.333 21.333v234.667c0 94.101 76.565 170.667 170.667 170.667s170.667-76.565 170.667-170.667v-234.667c0-11.776-9.536-21.333-21.333-21.333z" />
</font>
</defs>
</svg>
